<?xml version="1.0" encoding="utf-8"?>
<!-- Generator: Adobe Illustrator 24.1.1, SVG Export Plug-In . SVG Version: 6.00 Build 0)  -->
<svg version="1.1" id="svg" xmlns="http://www.w3.org/2000/svg" xmlns:xlink="http://www.w3.org/1999/xlink" x="0px" y="0px"
	 viewBox="0 0 336.7 202.4" style="enable-background:new 0 0 336.7 202.4;" xml:space="preserve">
<style type="text/css">
	.st0{fill-rule:evenodd;clip-rule:evenodd;fill:#F2F2F2;}
	.st1{fill-rule:evenodd;clip-rule:evenodd;fill:none;}
</style>
<path id="path0" class="st0" d="M78.6,7.1c-0.9,0.2-2.5,0.6-3.6,0.8C63.9,10.3,50.5,20,45.3,29.4c-3.5,6.3-4.9,9.9-6.3,15.7
	c-0.9,3.6-1,16.2-0.2,19.3c1.2,4.5,1.4,5.3,2.2,7.4c5.4,14.8,17.1,25.6,32.7,30.3c13.5,4,35.8-0.4,43.2-8.7c1.9-2.2,3.2-2.2,3.2-0.1
	c0,2.1,1.4,7.3,2.9,11.1c10,25,38.9,37.5,63.3,27.4c16.2-6.7,27-20.2,30.2-37.7c0.6-3.2,0.3-3.2,3.5-0.6c3.9,3.1,6.9,4.8,12.3,7.1
	c9.6,4.1,25.6,4.1,35.2,0c1.7-0.7,6.9-3.3,8.1-4c9.1-5.2,19-18.5,21.4-28.6c0.2-0.9,0.6-2.4,0.8-3.4c1.2-5.1,0.8-16-0.7-21.8
	c-4.3-16.9-19.5-31.8-35.6-35c-1.3-0.3-3.2-0.6-4.1-0.8c-2.2-0.5-12.9-0.5-15,0c-0.9,0.2-2.8,0.6-4.1,0.8c-1.3,0.3-2.8,0.6-3.2,0.8
	c-0.4,0.2-1.4,0.5-2.2,0.8c-15.9,5.7-31.2,24.8-31.2,38.9c0,2.1-2.1,1.8-4-0.6c-0.8-1-8.1-5.1-11.4-6.4c-7.1-2.9-18.8-4.4-24.3-3.2
	c-0.9,0.2-2.8,0.6-4.3,0.8c-4.4,0.8-8.3,2.3-13.3,5.1c-2.4,1.4-7.2,4.7-7.8,5.4c-0.9,1.1-1.1,0.8-1.6-2.1
	C131.5,28,116.2,11.4,98.2,7.8c-1.3-0.3-3.2-0.6-4.1-0.8C92,6.5,80.8,6.6,78.6,7.1 M92.2,9.6c3.4,0.3,3.6,0.3,9.3,2.2
	c3.4,1.1,5.5,2.1,9.4,4.3c7,4,18.7,18.6,18.7,23.4c0,0.4,0.2,0.8,0.4,0.9c0.2,0.1,0.4,0.7,0.6,1.3c0.1,0.6,0.5,2.3,0.8,3.7
	c1.3,5.8,1.3,8.1-0.2,9.7c-6,6.3-10.6,17.5-11.5,28.1c-0.3,3.3-0.5,4.5-1,4.9c-0.4,0.3-1.3,1.1-2.1,1.8
	c-13.3,12.1-38.1,14.7-51.7,5.4c-0.6-0.4-1.2-0.7-1.3-0.7c-1.5,0-10-7.6-13.2-11.8C47.4,79.1,44,73,44,71.7c0-0.3-0.2-0.7-0.4-0.9
	c-1-1.1-2.8-11.4-2.8-16c0-8.6,3.5-19.3,8.7-26.3c8-10.8,19-17.4,31.9-18.9c2.4-0.3,5.1-0.5,6-0.4C88.3,9.3,90.5,9.5,92.2,9.6
	 M255.4,9.7c4.5,0.4,11,2.4,15,4.5c24,12.6,32.2,41.6,18.3,65.1c-4.2,7.2-15.5,16.7-22.2,18.7c-0.4,0.1-2.1,0.6-3.6,1.1
	c-15.7,4.7-32,1-44.1-10.1l-2.1-2v-2.7c0-4-1.1-9.7-2.8-14.2c-1.7-4.6-5.3-10.9-8.5-14.7c-2-2.4-2-2.5-0.3-10.5
	c3.3-16,16.7-29.7,33.5-34.3c2.3-0.6,10.1-1.5,12-1.3C251.8,9.3,253.9,9.5,255.4,9.7 M85.3,31.1c-1.4,1.5-1.6,3.3-0.4,4.6
	c1.5,1.7,1,2.9-0.8,1.9c-0.6-0.3-1.7-0.6-2.5-0.6c-1.5,0-2.1,0.2-6.9,2.7c-3.2,1.6-5.2,1.4-4.4-0.5c0.3-0.9-0.8-1.7-1.5-1
	c-1.3,1.1,0.5,5.2,2.2,5.2c0.5,0,0.5,1.7,0,2.2c-0.2,0.2-0.6,1-0.9,1.8c-0.7,1.9-2.2,5.1-4.2,9.5c-2.1,4.4-2.1,4.6-0.5,7.4
	c2,3.4,4.1,4.7,7.6,4.7c3.7,0,6.9-2.4,9-6.7c0.1-0.3-0.6-2.3-1.6-4.4c-2-4.2-2.1-4.4-3.3-7.7c-2.8-7.7-2.8-7.6,0.1-9
	c3.5-1.7,8.7,1.9,7.1,5c-0.3,0.7-0.4,1.4-0.2,2.2c0.2,0.6,0.3,2.4,0.2,3.9c-0.1,1.5,0,3.1,0.2,3.4c0.7,1.3-0.3,7.8-1.6,10.4
	c-0.9,1.8-1.2,3.1-1.2,4.5c0,2-0.1,2.2-2.3,4.4c-2.7,2.8-2.6,2.9,1.7,4.2c4.4,1.4,9.8,1,13.6-0.8c1.6-0.8,1.5-1.1-1-3.8
	c-2-2.1-2.1-2.4-1.9-3.8c0.2-1.1,0-2-0.9-4c-0.7-1.4-1.4-3.2-1.6-4c-0.5-1.6-0.4-13.9,0.1-14.2c0.5-0.3,0.4-2.5-0.1-2.7
	c-1.1-0.7,0.7-3.8,2.8-4.8c2.4-1.1,6.4,0.4,6.4,2.3c0,1.7-3.3,10.6-5.7,15.2l-1.6,3.1l0.7,1.3c4.4,7.6,12.6,8,16.4,0.9
	c0.2-0.4,0.7-1.2,0.9-1.6c0.4-0.7,0.3-1.3-1.3-4.6c-2.7-5.9-3.9-8.4-3.9-8.6c0-0.2-1.5-3.6-2-4.6c-0.3-0.5,0-0.9,1.2-1.7
	c1.8-1.2,2.6-3.5,1.5-4.5c-0.8-0.8-1.5-0.4-1.5,0.8c0,2.6-1.6,2.4-8.1-1.3c-1.8-1-4.6-1.1-5.7-0.3c-1.9,1.4-2.4,0.2-0.7-2
	c0.7-0.9,1-1.6,0.8-2.3c-0.2-0.9-2.3-3.5-2.8-3.5C86.6,29.8,85.9,30.4,85.3,31.1 M248.9,33.4c-0.6,0.8-0.8,1.8-0.8,3.2
	c0,3.9-5.1,10.8-7.9,10.8c-1.5,0-3.6,2.5-3.1,3.9c0.6,1.7,12.7,10.5,14.4,10.5c1.8,0,4.2-3.1,3.4-4.4c-0.5-1,0.1-3.6,1.1-4.4
	c0.4-0.4,5.9,3.5,7.4,5.3c0.4,0.4,12.2,9.8,13.5,10.7l1.3,0.9l1.4-1.3c2.6-2.6,1.4-3.7-17.7-15.8c-2.1-1.3-3.8-2.5-3.8-2.7
	c0-0.9,3-3.5,4-3.5c1.2,0,3.4-2,3.8-3.4c0.4-1.2-2.3-3.5-10.1-8.5C251.4,31.8,250.1,31.6,248.9,33.4 M176.7,41.5
	c2.1,0.5,6.7,1.8,7.9,2.3c5.3,2.2,10.3,5.3,14.5,9.1l1.7,1.5l0.4,4.4c1,10.6,5.4,21.5,11.3,27.7c3.1,3.2-0.2,16.5-6.3,25.5
	c-7.1,10.4-16.3,16.5-30,19.8c-7.6,1.8-19.9,0-28.4-4.2c-5.7-2.8-12.2-8.1-15.7-12.8c-0.7-0.9-1.5-1.9-1.8-2.3
	c-1.7-1.9-5.8-11.3-6.7-15.3c-1.7-7.7-1.6-8.8,0.7-11.2c2.9-3.1,6.6-9.7,8.3-14.8c0.8-2.3,1.1-3.4,2.1-7.9c0.2-1,0.4-3.2,0.4-4.7
	c0-4.1,0.4-4.7,6.6-9.4c4.4-3.3,11.6-6.3,18.6-7.7C163,40.9,174.5,40.9,176.7,41.5 M74,45.1c0.3,0.7,0.6,1.7,0.8,2.1
	c0.2,0.4,0.5,1.6,0.8,2.6c0.3,1,0.7,2,0.8,2.2c0.2,0.2,0.3,0.6,0.3,0.9c0,0.5,1.1,3.1,2.4,5.9c0.4,0.8,0.8,1.7,0.8,1.9
	c0,0.2-3.2,0.4-7.2,0.4c-5.1,0-7.2-0.1-7.2-0.5c0-0.2,0.6-1.7,1.4-3.3c0.8-1.6,1.8-3.7,2.2-4.8c0.5-1.1,1.1-2.5,1.4-3.2
	c0.3-0.7,0.8-2.1,1.2-3.3C72.6,43.5,73.3,43.3,74,45.1 M101.2,45.3c0.5,1.5,0.7,2,1.8,4.5c1.7,3.9,2.5,5.6,3.7,8.1
	c0.7,1.5,1.2,2.8,1.1,2.9c-0.3,0.3-14.5,0.3-14.5,0c0-0.1,0.5-1.3,1-2.5c1-2.2,1.5-3.3,2.3-5.2c0.2-0.6,0.6-1.3,0.7-1.7
	c0.2-0.4,0.4-1,0.4-1.5c0-0.4,0.2-0.9,0.4-1c0.2-0.1,0.4-0.7,0.4-1.2c0-0.5,0.2-1.1,0.4-1.2s0.4-0.7,0.4-1.2
	C99.2,43.3,100.5,43.3,101.2,45.3 M207.6,63.2c3.6,5.9,7.6,19.5,5.8,19.4c-1.5,0-6.9-11.4-8.1-17C203.6,57.9,204.1,57.4,207.6,63.2
	 M132,61c0,5.1-4.1,15.7-8,20.5c-1.1,1.3-1.9,1.4-1.4,0.2c0.1-0.3,0.4-1.6,0.6-2.9c1-6.2,3-11.5,6.5-16.8C131.7,59,132,58.8,132,61
	 M147,61.9c-4.7,2.3-5.1,9.4-0.5,11.9c5,2.8,11.6-1.8,10-7.1c-0.6-2.1-0.7-2,12-1.9l11.8,0.1l-0.1,2.5c-0.4,6.5,6.3,9.8,11,5.6
	l1.9-1.7v-3c0-3.6-0.8-5-3.6-6.3C186.7,60.6,149.6,60.6,147,61.9 M151.9,65.9c1.8,1.7,0.9,4.6-1.6,5c-1.2,0.2-1.6,0-2.5-0.8
	C145,67.2,149,63.2,151.9,65.9 M188.7,65.9c1.8,1.7,0.9,4.6-1.6,5c-1.2,0.2-1.6,0-2.5-0.8C181.8,67.2,185.8,63.2,188.7,65.9
	 M238.2,65.8c-5.7,0.3-6.8,0.8-6.9,3.2c-0.1,1.5-0.3,1.8-1.5,2.3c-1.7,0.7-2.7,2.8-2.5,5.4l0.1,1.8l9.6,0.1c5.3,0.1,11.9,0,14.6-0.2
	l5-0.3l0.1-2.2c0.2-2.7-0.5-4.3-1.9-4.9c-0.8-0.4-1.2-0.9-1.6-2.4C252.5,65.8,249.3,65.1,238.2,65.8 M158.5,69.3l0.1,1.1l9.4,0.1
	c9.9,0.1,10.8,0,10.2-1.7c-0.2-0.5-1.7-0.6-10.1-0.6h-9.8L158.5,69.3 M159.9,73.7c-0.8,0.8-0.3,28.4,0.6,29.2
	c0.8,0.7,0.8,0.7,1.8-0.4l1-1.1l-0.1-13.9L163,73.6l-1.4-0.1C160.9,73.4,160.1,73.5,159.9,73.7 M166.7,73.7
	c-0.5,0.5-0.3,36.9,0.1,37.8c0.6,1.2,2.3,1,2.8-0.3c0.4-1.1,0.6-36.1,0.1-37.1C169.6,73.4,167.3,73.1,166.7,73.7 M173.9,73.7
	c-0.8,0.8-0.3,28.9,0.5,29.2c2.5,0.8,2.4,1.2,2.3-14.7l-0.1-14.5l-1.2-0.1C174.8,73.4,174.1,73.5,173.9,73.7 M204.4,154.4
	c-2.3,1.2-2.5,3.8-0.7,6.7l1.2,1.9l-1.3,0.8c-6,3.7-0.8,12,5.3,8.5c1.2-0.7,1.2-0.7,1.8,0.1c0.8,1.1,1.2,0.5,0.5-0.9
	c-1.1-2.1-0.4-6.5,1-7c1.7-0.6,1.4-1.1-0.7-1.1h-1.8v2.4c0,1.3-0.1,2.4-0.3,2.4c-0.3,0-2.1-2.6-2.1-3c0-0.1-0.7-1.3-1.5-2.5
	c-3.6-5.4-2.8-8.2,2.1-7.5c2.1,0.3,2.3,0.1,0.6-0.8C207,153.7,205.8,153.7,204.4,154.4 M11.6,155.5c-7.5,2.8-8.1,13.3-1,16.6
	c2.1,1,5.8,1.1,7.5,0.3c1.5-0.7,1.4-1.2-0.2-0.9c-3.5,0.7-4.6,0.7-6.4-0.2c-7.9-3.7-5.5-15.2,3.1-15.2c2.8,0,3.8,0.5,3.8,1.8
	c0,0.5,0.2,1,0.4,1c0.6,0,0.5-2.6-0.2-3.2C17.8,155.1,13.3,154.9,11.6,155.5 M33.4,156.5c-0.3,0.8-0.6,1.5-0.6,1.6
	c0,0.1-0.4,1-0.8,2.1c-0.8,1.8-1.1,2.5-2.5,5.8c-2.1,4.9-2.7,5.9-3.6,6.1c-1.8,0.5-1.1,1,1.4,1c1.3,0,2.4-0.2,2.4-0.4
	c0-0.2-0.2-0.4-0.4-0.4c-0.8,0-0.9-1.1-0.2-2.6c0.3-0.8,0.9-2.1,1.3-2.8l0.6-1.4h3.6H38l0.6,1.4c0.3,0.8,0.9,2,1.3,2.8
	c0.6,1.4,0.5,2.6-0.2,2.6c-0.2,0-0.4,0.2-0.4,0.4c0,0.2,1.1,0.4,2.4,0.4c2.6,0,3.1-0.4,1.3-1c-0.6-0.2-1.3-0.9-1.6-1.4
	c-0.9-2-2.1-4.8-2.1-5c0-0.1-0.4-1.1-0.8-2.1c-0.5-1-1.1-2.5-1.4-3.2c-0.3-0.7-0.8-1.9-1.1-2.6c-0.3-0.7-0.7-1.6-0.8-2
	C34.7,154.6,34.1,154.9,33.4,156.5 M49.9,155.3c-0.5,0.5-0.3,0.9,0.3,0.9c0.5,0,0.6,1.1,0.6,7.8c0,6.5-0.1,7.8-0.6,8
	c-1.6,0.6-0.4,1.1,3,1.1c7,0,10.2-3.9,6.2-7.7l-1.4-1.4l1-1.1c2.5-2.7,1.1-7-2.4-7.6C54.5,154.9,50.2,155,49.9,155.3 M75.2,155.4
	c0,0.2-0.4,1.2-0.8,2.2c-0.4,1-1.2,2.6-1.6,3.6c-0.4,1-0.8,1.9-0.8,2s-0.5,1.3-1.1,2.7c-0.6,1.4-1.4,3.2-1.7,4.1
	c-0.4,1.1-0.9,1.7-1.7,2c-1.8,0.7-1.3,1,1.3,1c1.3,0,2.4-0.2,2.4-0.4c0-0.2-0.3-0.4-0.6-0.4c-1.3,0-0.9-1.9,1.2-5.6
	c0.7-1.2,7.2-1.6,7.9-0.4c1.9,3.4,2.4,5.5,1.4,5.9c-1.3,0.5-0.5,0.9,1.8,0.9c2.3,0,3.4-0.6,1.6-0.9c-0.8-0.1-1.4-0.9-2.5-3.5
	c-0.9-2.2-1.7-4-2.6-6.1c-0.5-1-0.8-2-0.8-2.1c0-0.2-1.4-3.5-2-4.6C76.1,155.1,75.2,154.8,75.2,155.4 M91.5,155.3
	c-0.5,0.5-0.3,0.9,0.5,1.1c0.8,0.2,0.8,0.5,0.8,7.6c0,7,0,7.4-0.8,7.9c-1.8,1-0.7,1.2,5.4,1.2h6.2v-1.8c0-2.2-1.1-2.6-1.3-0.5
	l-0.1,1.3l-3.8,0.1c-5.1,0.1-4.8,0.6-4.7-8.4c0.1-7.3,0.1-7.3,1-7.5c0.5-0.1,0.9-0.3,0.8-0.6C95.4,155.2,92,154.8,91.5,155.3
	 M109.6,155.4c-0.5,0.3-0.5,0.4,0.3,0.6c1.3,0.4,1.4,15.5,0.1,16c-2.1,0.7-0.3,1,5.3,1c7.1,0,6.5,0.2,6.3-2.2
	c-0.2-2.2-0.8-2.4-0.9-0.3l-0.1,1.5h-4.2h-4.2l-0.1-7.9c-0.1-7.6-0.1-7.9,0.7-7.9c1,0,1.4-0.6,0.6-1
	C112.4,154.9,110.3,155,109.6,155.4 M127.7,155.4c-0.5,0.3-0.4,0.5,0.5,0.8l1.1,0.4l-0.1,7.5c-0.1,7.4-0.1,7.5-1,7.9
	c-1.8,0.8-0.7,1,5.5,1h6.4v-2c0-1.1-0.2-2-0.4-2s-0.4,0.5-0.4,1.2c0,1.8-0.7,2.1-4.9,2l-3.7-0.1l-0.1-3.7l-0.1-3.7l3.9-0.1
	c5.6-0.2,5.8-1.1,0.2-1.1h-4v-3.6v-3.6l4.1,0.1l4.1,0.1l0.1,1.1c0.2,1.4,1,1.2,1.2-0.3c0.2-2-0.3-2.2-6.3-2.2
	C130.7,155,128,155.2,127.7,155.4 M145.9,155.2c-0.5,0.5-0.3,0.9,0.5,1.1c0.8,0.2,0.8,0.5,0.8,7.6c0,7,0,7.4-0.8,7.9
	c-1.4,0.8-0.8,1.2,1.6,1.2c1.3,0,2.4-0.2,2.4-0.4c0-0.2-0.3-0.4-0.8-0.4c-1.3,0-1.7-1-1.6-4.3l0.1-3.1h1.6h1.6l2,4.1l2,4.1h1.5
	c1.7,0,2-0.7,0.4-0.9c-0.9-0.1-1.3-0.6-2.8-3.5c-2-4.1-2-4.1-0.6-4.7c2.8-1.2,3.1-5.6,0.6-7.5C153.2,155.3,146.7,154.5,145.9,155.2
	 M170,155.5c-7.5,2.8-8.1,13.3-1,16.6c8.6,4,16.7-5.3,11.5-13.2C178.4,155.7,173.7,154.2,170,155.5 M232.3,155.3
	c-0.6,0.6-0.3,1,0.7,1c1,0,1.2,0.4,3.2,5c0.3,0.7,0.9,2.1,1.4,3.1c0.5,1,0.8,2,0.8,2.1c0,0.1,0.4,1.1,0.8,2.1c0.5,1,1.1,2.5,1.4,3.2
	c0.8,1.8,1.2,1.5,2.4-1.3c0.5-1.3,1.1-2.7,1.3-3.2c1.4-3,2-4.6,2-4.8c0-0.1,0.5-1.4,1.2-2.8c0.7-1.4,1.2-2.8,1.2-3
	c0-0.2,0.6-0.4,1.2-0.4c0.8,0,1.2-0.2,1.1-0.5c-0.1-0.3-0.9-0.5-2.3-0.5c-1.4,0-2.2,0.2-2.3,0.5c-0.1,0.3,0.1,0.5,0.5,0.5
	c1,0,1,0.2-1.3,5.3c-0.5,1-0.8,2-0.8,2.1c0,0.1-0.4,1.1-0.8,2.1c-0.5,1-1.1,2.5-1.4,3.2c-0.8,1.7-1.5,1.6-2.1-0.2
	c-0.3-0.8-0.9-2.3-1.3-3.3c-1.5-3.4-1.8-4.2-2.5-6c-0.4-1-0.9-2-1.1-2.3c-0.3-0.4-0.2-0.6,0.5-0.8c0.5-0.1,0.8-0.4,0.7-0.7
	C236.6,155.2,232.8,154.8,232.3,155.3 M265.6,155.4c0,0.2-0.4,1.2-0.8,2.2c-0.4,1-1.2,2.6-1.6,3.6c-0.4,1-0.8,1.9-0.8,2
	s-0.5,1.3-1.1,2.7c-0.6,1.4-1.4,3.2-1.7,4.1c-0.4,1.1-0.9,1.7-1.7,2c-1.8,0.7-1.3,1,1.3,1c1.3,0,2.4-0.2,2.4-0.4
	c0-0.2-0.3-0.4-0.6-0.4c-1.3,0-0.9-1.9,1.2-5.6c0.7-1.2,7.2-1.6,7.9-0.4c1.9,3.4,2.4,5.5,1.4,5.9c-1.3,0.5-0.5,0.9,1.8,0.9
	c2.3,0,3.4-0.6,1.6-0.9c-0.8-0.1-1.4-0.9-2.5-3.5c-0.9-2.2-1.7-4-2.6-6.1c-0.5-1-0.8-2-0.8-2.1c0-0.2-1.4-3.5-2-4.6
	C266.5,155.1,265.6,154.8,265.6,155.4 M281.9,155.3c-0.5,0.5-0.3,0.9,0.5,1.1c0.8,0.2,0.8,0.5,0.8,7.6c0,7,0,7.4-0.8,7.9
	c-1.8,1-0.7,1.2,5.4,1.2h6.2v-1.8c0-2.2-1.1-2.6-1.3-0.5l-0.1,1.3l-3.8,0.1c-5.1,0.1-4.8,0.6-4.7-8.4c0.1-7.3,0.1-7.3,1-7.5
	c0.5-0.1,0.9-0.3,0.8-0.6C285.8,155.2,282.4,154.8,281.9,155.3 M300,155.4c-0.5,0.3-0.5,0.4,0.3,0.6c1.3,0.4,1.4,15.5,0.1,16
	c-2.1,0.7-0.3,1,5.3,1c7.1,0,6.5,0.2,6.3-2.2c-0.2-2.2-0.8-2.4-0.9-0.3L311,172h-4.2h-4.2l-0.1-7.9c-0.1-7.6-0.1-7.9,0.7-7.9
	c1,0,1.4-0.6,0.6-1C302.8,154.9,300.7,155,300,155.4 M318.1,155.4c-0.5,0.3-0.4,0.5,0.5,0.8l1.1,0.4l-0.1,7.5
	c-0.1,7.4-0.1,7.5-1,7.9c-1.8,0.8-0.7,1,5.5,1h6.4v-2c0-1.1-0.2-2-0.4-2s-0.4,0.5-0.4,1.2c0,1.8-0.7,2.1-4.9,2L321,172l-0.1-3.7
	l-0.1-3.7l3.9-0.1c5.6-0.2,5.8-1.1,0.2-1.1h-4v-3.6v-3.6l4.1,0.1l4.1,0.1l0.1,1.1c0.2,1.4,1,1.2,1.2-0.3c0.2-2-0.3-2.2-6.3-2.2
	C321.1,155,318.4,155.2,318.1,155.4 M58.2,157.3c2.7,2.7,0.7,6.1-3.6,6.1l-2.5,0v-3.6v-3.6h2.5C56.8,156.2,57.3,156.4,58.2,157.3
	 M154,157.4c3,2.8,0.7,6.3-4,6l-1.8-0.1l-0.1-3c-0.2-4-0.1-4,2.5-4C152.4,156.2,152.9,156.4,154,157.4 M176.5,156.7
	c5.1,2.9,6.1,9.7,1.9,13.3c-7.3,6.2-16.9-2.3-11.9-10.5C168.2,156.7,173.8,155.2,176.5,156.7 M76.6,158.7c2.5,5.4,2.5,5.5-0.9,5.5
	c-1.5,0-2.8-0.1-2.8-0.2c0-0.2,1.5-3.6,2-4.7c0.2-0.4,0.4-1,0.4-1.3C75.2,157,75.9,157.4,76.6,158.7 M267,158.7
	c2.5,5.4,2.5,5.5-0.9,5.5c-1.5,0-2.8-0.1-2.8-0.2c0-0.2,1.5-3.6,2-4.7c0.2-0.4,0.4-1,0.4-1.3C265.6,157,266.3,157.4,267,158.7
	 M35.3,158.9c0.2,0.6,0.7,1.6,1,2.3c1.4,3,1.4,3-1.8,3c-3.1,0-3.2-0.1-2.2-2.2c0.3-0.7,0.9-2,1.2-2.8
	C34.2,157.5,34.7,157.4,35.3,158.9 M207.5,167.5c1.7,2.9,1.7,3.3,0.2,4.1c-4.5,2.3-8.2-4-3.9-6.6
	C205.3,164.1,205.6,164.3,207.5,167.5 M58.3,165.4c3,1.9,1.8,5.5-2,6.4c-3.9,0.9-4.1,0.8-4.2-3.6l-0.1-3.8l2.7,0.2
	C56.2,164.8,57.9,165.1,58.3,165.4 M2.4,193v1.6h165.4h165.4V193v-1.6H167.8H2.4V193"/>
<path id="path1" class="st1" d="M-32,92.2v200h200h200v-200v-200H168H-32V92.2 M94.2,7c0.9,0.2,2.8,0.6,4.1,0.8
	c17.9,3.6,33.3,20.2,36.6,39.7c0.5,2.8,0.7,3.1,1.6,2.1c0.6-0.7,5.4-4,7.8-5.4c5.1-2.9,8.9-4.3,13.3-5.1c1.4-0.3,3.4-0.6,4.3-0.8
	c5.5-1.2,17.2,0.3,24.3,3.2c3.3,1.3,10.6,5.5,11.4,6.4c1.9,2.4,4,2.7,4,0.6c0-14.1,15.3-33.2,31.2-38.9c0.8-0.3,1.8-0.6,2.2-0.8
	c0.4-0.2,1.9-0.5,3.2-0.8c1.3-0.3,3.2-0.6,4.1-0.8c2.2-0.5,12.9-0.5,15,0c0.9,0.2,2.8,0.6,4.1,0.8c23.9,4.7,41.8,32.7,36.3,56.8
	c-0.2,1-0.6,2.5-0.8,3.4c-2.3,10.1-12.2,23.4-21.4,28.6c-1.3,0.7-6.5,3.3-8.1,4c-9.6,4.1-25.6,4.1-35.2,0c-5.4-2.3-8.4-4-12.3-7.1
	c-3.3-2.6-2.9-2.7-3.5,0.6c-5.3,28.8-32.3,46.7-60.2,39.7c-18.4-4.6-36.1-24.4-36.2-40.5c0-2.1-1.3-2.1-3.2,0.1
	c-6.4,7.2-27.9,12.4-39.6,9.6c-17.6-4.2-30.5-15.3-36.3-31.2c-0.8-2.1-1-2.9-2.2-7.4C38,61.3,38.1,48.7,39,45.1
	c1.4-5.8,2.8-9.4,6.3-15.7C50.5,20,63.9,10.3,75,7.9c1.1-0.2,2.7-0.6,3.6-0.8C80.8,6.6,92,6.5,94.2,7 M81.4,9.6
	c-5.7,0.7-10.2,2-15.1,4.5c-17.5,8.8-27.8,28.5-24.9,47.4c0.7,4.3,1.8,8.8,2.3,9.3c0.2,0.2,0.4,0.6,0.4,0.9c0,1.3,3.4,7.4,6.2,11.1
	c3.2,4.2,11.7,11.8,13.2,11.8c0.1,0,0.7,0.3,1.3,0.7c10.2,7,29,7.4,41.9,1c4.8-2.4,6.8-3.7,9.9-6.5c0.8-0.7,1.8-1.5,2.1-1.8
	c0.5-0.4,0.8-1.6,1-4.9c0.9-10.6,5.5-21.8,11.5-28.1c1.5-1.5,1.5-3.9,0.2-9.7c-0.3-1.4-0.7-3.1-0.8-3.7c-0.1-0.6-0.4-1.2-0.6-1.3
	c-0.2-0.1-0.4-0.5-0.4-0.9c0-4.1-8.6-15.5-16.4-21.8c-2.3-1.9-7.6-4.5-11.7-5.9c-5.7-1.9-5.9-1.9-9.3-2.2c-1.8-0.1-3.9-0.3-4.8-0.4
	C86.6,9.1,83.9,9.3,81.4,9.6 M244.6,9.6c-19.2,2.3-35.5,16.9-39.3,35.2c-1.7,8.1-1.7,8.2,0.3,10.5c3.2,3.8,6.8,10.1,8.5,14.7
	c0.8,2.1,1.2,3.4,1.5,5.2c1,4.7,1.2,6.4,1.2,9v2.7l2.1,2C231,100,247.4,103.7,263,99c1.5-0.5,3.2-1,3.6-1.1
	c6.7-2,17.9-11.5,22.2-18.7c11.1-18.9,8.4-41.5-6.9-56.6c-5.2-5.1-10.5-8.6-16.7-10.6c-5.5-1.9-6.4-2-14.4-2.7
	C249.9,9.2,247.1,9.3,244.6,9.6 M88.1,31.1c1.7,1.9,1.8,2.9,0.6,4.5c-1.6,2.2-1.2,3.5,0.7,2c1.1-0.9,3.9-0.7,5.7,0.3
	c6.5,3.7,8.1,3.9,8.1,1.3c0-1.2,0.7-1.6,1.5-0.8c1.1,1.1,0.3,3.3-1.5,4.5c-1.2,0.8-1.5,1.2-1.2,1.7c0.5,1,2,4.4,2,4.6
	c0,0.2,1.1,2.7,3.9,8.6c1.5,3.3,1.7,3.9,1.3,4.6c-0.3,0.4-0.7,1.2-0.9,1.6c-3.9,7.2-12,6.7-16.4-0.9l-0.7-1.3l1.6-3.1
	c2.4-4.7,5.7-13.6,5.7-15.2c0-2-4.1-3.5-6.4-2.3c-2.1,1-3.9,4.1-2.8,4.8c0.5,0.3,0.5,2.5,0.1,2.7c-0.5,0.3-0.6,12.6-0.1,14.2
	c0.2,0.8,1,2.6,1.6,4c0.9,2,1.1,2.9,0.9,4c-0.2,1.4-0.1,1.6,1.9,3.8c2.5,2.7,2.5,3,1,3.8c-3.8,1.8-9.2,2.1-13.6,0.8
	c-4.3-1.3-4.3-1.5-1.7-4.2c2.1-2.2,2.3-2.5,2.3-4.4c0-1.5,0.3-2.8,1.2-4.5c1.3-2.6,2.3-9.1,1.6-10.4c-0.2-0.3-0.3-1.9-0.2-3.4
	c0.1-1.5,0-3.3-0.2-3.9c-0.2-0.8-0.2-1.5,0.2-2.2c1.5-3.1-3.6-6.7-7.1-5c-2.9,1.4-2.9,1.3-0.1,9c1.2,3.3,1.3,3.5,3.3,7.7
	c1,2.1,1.8,4.1,1.6,4.4c-3.9,8.2-12.4,9.2-16.6,2c-1.6-2.7-1.6-2.9,0.5-7.4c2.1-4.4,3.5-7.6,4.2-9.5c0.3-0.8,0.7-1.6,0.9-1.8
	c0.5-0.5,0.4-2.2,0-2.2c-1.8,0-3.5-4.1-2.2-5.2c0.7-0.6,1.9,0.1,1.5,1c-0.7,1.9,1.3,2.1,4.4,0.5c4.9-2.5,5.4-2.7,6.9-2.7
	c0.8,0,2,0.3,2.5,0.6c1.8,1,2.3-0.2,0.8-1.9c-1.4-1.5,0-5.9,1.9-5.9C86.8,29.8,87.5,30.4,88.1,31.1 M255.7,34.7
	c7.8,5.1,10.5,7.3,10.1,8.5c-0.4,1.4-2.6,3.4-3.8,3.4c-1,0-4,2.6-4,3.5c0,0.2,1.7,1.4,3.8,2.7c19,12.1,20.3,13.2,17.7,15.8l-1.4,1.3
	l-1.3-0.9c-1.4-1-13.2-10.3-13.5-10.7c-1.5-1.7-6.9-5.6-7.4-5.3c-0.9,0.8-1.6,3.4-1.1,4.4c0.7,1.4-1.6,4.4-3.4,4.4
	c-1.7,0-13.8-8.8-14.4-10.5c-0.5-1.3,1.6-3.9,3.1-3.9c2.8,0,7.9-7,7.9-10.8C248,31.7,250.3,31.1,255.7,34.7 M160.4,41.5
	c-6.9,1.4-14.1,4.4-18.6,7.7c-6.2,4.7-6.6,5.3-6.6,9.4c0,1.6-0.2,3.7-0.4,4.7c-1,4.5-1.3,5.6-2.1,7.9c-1.7,5.1-5.4,11.7-8.3,14.8
	c-2.3,2.5-2.4,3.5-0.7,11.2c0.9,4,5,13.4,6.7,15.3c0.3,0.4,1.2,1.4,1.8,2.3c8.2,11,21.5,17.4,36.2,17.4c6.3,0,7.4-0.2,13.6-2.1
	c14.6-4.4,26.5-16.7,30.3-31.3c1.9-7.2,2-10.4,0.2-12.3c-5.9-6.2-10.3-17.1-11.3-27.7l-0.4-4.4l-1.7-1.5c-4.2-3.8-9.2-6.9-14.5-9.1
	c-1.2-0.5-5.8-1.8-7.9-2.3C174.5,40.9,163,40.9,160.4,41.5 M71.9,45.9c-0.4,1.2-0.9,2.6-1.2,3.3c-0.3,0.7-0.9,2.1-1.4,3.2
	c-0.5,1.1-1.5,3.3-2.2,4.8c-0.8,1.6-1.4,3.1-1.4,3.3c0,0.3,2.1,0.5,7.2,0.5c4,0,7.2-0.2,7.2-0.4c0-0.2-0.3-1.1-0.8-1.9
	c-1.4-2.8-2.4-5.3-2.4-5.9c0-0.3-0.1-0.7-0.3-0.9c-0.2-0.2-0.6-1.2-0.8-2.2c-0.3-1-0.7-2.2-0.8-2.6c-0.2-0.4-0.5-1.4-0.8-2.1
	C73.3,43.3,72.6,43.5,71.9,45.9 M99.5,44.1c-0.1,0.1-0.3,0.7-0.3,1.2s-0.2,1-0.4,1.2s-0.4,0.7-0.4,1.2c0,0.5-0.2,1.1-0.4,1.2
	c-0.2,0.1-0.4,0.6-0.4,1c0,0.4-0.2,1.1-0.4,1.5c-0.2,0.4-0.5,1.1-0.7,1.7c-0.8,2-1.2,3-2.3,5.2c-0.6,1.2-1,2.4-1,2.5
	c0,0.3,14.2,0.3,14.5,0c0.1-0.1-0.4-1.4-1.1-2.9c-1.2-2.4-2-4.1-3.7-8.1c-1.1-2.5-1.3-3-1.8-4.5C100.7,43.9,100.1,43.5,99.5,44.1
	 M204.4,59.2c-0.4,0.4,0.9,7.1,2.1,10.8c1.5,4.5,5.9,12.6,6.8,12.6c1.1,0-0.8-8.9-3-14C208.3,63.9,205,58.6,204.4,59.2 M129.7,62
	c-3.5,5.3-5.5,10.6-6.5,16.8c-0.2,1.3-0.5,2.6-0.6,2.9c-0.5,1.3,0.4,1.2,1.4-0.2c3.8-4.8,8-15.5,8-20.5C132,58.8,131.7,59,129.7,62
	 M189.5,61.9c2.8,1.3,3.6,2.7,3.6,6.3v3l-1.9,1.7c-4.7,4.3-11.3,0.9-11-5.6l0.1-2.5l-11.8-0.1c-12.7-0.1-12.6-0.1-12,1.9
	c1.6,5.3-5,10-10,7.1c-4.5-2.5-4.2-9.6,0.5-11.9C149.6,60.6,186.7,60.6,189.5,61.9 M147.9,65.6c-1.3,1-1.3,3.2-0.1,4.4
	c2,2,5,0.7,5-2C152.9,65.6,149.8,64.1,147.9,65.6 M184.7,65.6c-2.3,1.7-0.5,5.8,2.4,5.3c1.7-0.3,2.5-1.2,2.5-2.9
	C189.7,65.6,186.6,64.1,184.7,65.6 M251.9,66.3c0.6,0.3,1,1.1,1.4,2.3c0.4,1.4,0.7,2,1.6,2.4c1.4,0.6,2.1,2.2,1.9,4.9l-0.1,2.2
	l-5,0.3c-2.8,0.2-9.3,0.3-14.6,0.2l-9.6-0.1l-0.1-1.8c-0.2-2.6,0.8-4.6,2.5-5.4c1.2-0.5,1.4-0.8,1.5-2.3c0.1-1.5,0.3-1.8,1.3-2.3
	C234.9,65.5,249.8,65.3,251.9,66.3 M178.3,68.8c0.6,1.7-0.3,1.8-10.2,1.7l-9.4-0.1l-0.1-1.1l-0.1-1.1h9.8
	C176.6,68.2,178.1,68.3,178.3,68.8 M163.1,87.5l0.1,13.9l-1,1.1c-1,1.1-1,1.1-1.8,0.4c-0.8-0.7-0.8-1.1-0.8-14.8
	c0-15.2-0.1-14.7,2-14.5l1.4,0.1L163.1,87.5 M169.8,74.1c0.4,1.1,0.3,36-0.1,37.1c-0.5,1.3-2.2,1.4-2.8,0.3
	c-0.5-0.9-0.6-37.3-0.1-37.8C167.3,73.1,169.6,73.4,169.8,74.1 M176.7,88.1c0.1,14.2,0.1,14.5-0.7,14.7c-2.5,0.8-2.4,1.2-2.4-14.6
	c0-15.3,0-14.9,1.8-14.8l1.2,0.1L176.7,88.1 M208.5,154.4c1.7,0.9,1.5,1.1-0.6,0.8c-4.9-0.7-5.7,2.1-2.1,7.5
	c0.8,1.3,1.5,2.4,1.5,2.5c0,0.4,1.8,3,2.1,3c0.2,0,0.3-1.1,0.3-2.4v-2.4h1.8c2,0,2.4,0.5,0.7,1.1c-1.4,0.5-2.1,4.9-1,7
	c0.7,1.4,0.3,2-0.5,0.9c-0.6-0.8-0.6-0.8-1.8-0.1c-6.1,3.5-11.3-4.8-5.3-8.5l1.3-0.8l-1.2-1.9C200.8,156.6,204,152.1,208.5,154.4
	 M18.6,155.8c0.7,0.6,0.8,3.2,0.2,3.2c-0.2,0-0.4-0.4-0.4-1c0-1.3-1.1-1.8-3.8-1.8c-8.6,0-11,11.5-3.1,15.2c1.9,0.9,3,0.9,6.4,0.2
	c1.6-0.3,1.7,0.2,0.2,0.9c-8.3,3.9-16.2-6.9-10.4-14.3C9.9,155.4,16.4,154,18.6,155.8 M35.1,155.7c0.1,0.4,0.5,1.3,0.8,2
	c0.3,0.7,0.8,1.9,1.1,2.6c0.3,0.7,0.9,2.2,1.4,3.2c0.5,1,0.8,2,0.8,2.1c0,0.2,1.2,3,2.1,5c0.3,0.5,1,1.2,1.6,1.4
	c1.8,0.7,1.3,1-1.3,1c-1.3,0-2.4-0.2-2.4-0.4c0-0.2,0.2-0.4,0.4-0.4c0.8,0,0.9-1.1,0.2-2.6c-0.3-0.8-0.9-2.1-1.3-2.8l-0.6-1.4h-3.6
	h-3.6l-0.6,1.4c-0.3,0.8-0.9,2-1.3,2.8c-0.6,1.4-0.5,2.6,0.2,2.6c0.2,0,0.4,0.2,0.4,0.4c0,0.2-1.1,0.4-2.4,0.4c-2.5,0-3.2-0.5-1.4-1
	c1-0.2,1.5-1.2,3.6-6.1c1.4-3.3,1.7-4,2.5-5.8c0.5-1,0.8-2,0.8-2.1C32.8,156.4,34.7,154.5,35.1,155.7 M56.5,155.3
	c3.6,0.6,4.9,4.9,2.4,7.6l-1,1.1l1.4,1.4c3.9,3.8,0.8,7.7-6.2,7.7c-3.3,0-4.5-0.4-3-1.1c0.5-0.2,0.6-1.5,0.6-8
	c0-6.6-0.1-7.8-0.6-7.8c-0.6,0-0.8-0.5-0.3-0.9C50.2,155,54.5,154.9,56.5,155.3 M76.5,155.8c0.5,1.1,2,4.4,2,4.6
	c0,0.1,0.4,1.1,0.8,2.1c0.9,2.1,1.7,3.9,2.6,6.1c1.1,2.6,1.7,3.4,2.5,3.5c1.8,0.3,0.7,0.9-1.6,0.9c-2.3,0-3.1-0.4-1.8-0.9
	c1-0.4,0.5-2.4-1.4-5.9c-0.6-1.2-7.2-0.8-7.9,0.4c-2.1,3.7-2.5,5.6-1.2,5.6c0.3,0,0.6,0.2,0.6,0.4c0,0.2-1.1,0.4-2.4,0.4
	c-2.6,0-3.1-0.4-1.3-1c0.8-0.3,1.3-0.9,1.7-2c0.3-0.9,1.1-2.7,1.7-4.1c0.6-1.4,1.1-2.6,1.1-2.7s0.4-1,0.8-2c0.4-1,1.2-2.6,1.6-3.6
	c0.4-1,0.8-2,0.8-2.2C75.2,154.8,76.1,155.1,76.5,155.8 M95.5,155.7c0.1,0.3-0.3,0.5-0.8,0.6c-0.9,0.1-0.9,0.1-1,7.5
	c-0.1,9-0.4,8.5,4.7,8.4l3.8-0.1l0.1-1.3c0.2-2.1,1.3-1.7,1.3,0.5v1.8h-6.2c-6.1,0-7.2-0.2-5.4-1.2c0.8-0.4,0.8-0.8,0.8-7.9
	c0-7.1,0-7.4-0.8-7.6c-0.8-0.2-1-0.6-0.5-1.1C92,154.8,95.4,155.2,95.5,155.7 M113.4,155.3c0.8,0.3,0.4,1-0.6,1
	c-0.8,0-0.8,0.3-0.7,7.9l0.1,7.9h4.2h4.2l0.1-1.5c0.2-2.1,0.8-1.9,0.9,0.3c0.2,2.4,0.7,2.2-6.3,2.2c-5.7,0-7.4-0.3-5.3-1
	c1.3-0.4,1.2-15.6-0.1-16c-0.8-0.2-0.8-0.3-0.3-0.6C110.3,155,112.4,154.9,113.4,155.3 M139.6,155.6c0.6,0.7,0.4,2.7-0.3,2.9
	c-0.3,0.1-0.5-0.3-0.6-1l-0.1-1.1l-4.1-0.1l-4.1-0.1v3.6v3.6h4c5.6,0,5.4,0.9-0.2,1.1l-3.9,0.1l0.1,3.7l0.1,3.7l3.7,0.1
	c4.2,0.1,4.9-0.2,4.9-2c0-0.6,0.2-1.2,0.4-1.2s0.4,0.9,0.4,2v2h-6.4c-6.2,0-7.3-0.2-5.5-1c0.9-0.4,0.9-0.6,1-7.9l0.1-7.5l-1.1-0.4
	c-2-0.8-0.2-1.2,5.5-1.2C138,155,139.2,155.1,139.6,155.6 M154.6,156.4c2.5,1.9,2.2,6.3-0.6,7.5c-1.5,0.7-1.5,0.7,0.6,4.7
	c1.4,2.9,1.9,3.4,2.8,3.5c1.6,0.2,1.3,0.9-0.4,0.9h-1.5l-2-4.1l-2-4.1h-1.6h-1.6l-0.1,3.1c-0.1,3.3,0.2,4.3,1.6,4.3
	c0.4,0,0.8,0.2,0.8,0.4c0,0.2-1.1,0.4-2.4,0.4c-2.4,0-3-0.4-1.6-1.2c0.8-0.4,0.8-0.8,0.8-7.9c0-7.1,0-7.4-0.8-7.6
	c-0.4-0.1-0.8-0.3-0.8-0.5C145.6,154.4,152.6,154.8,154.6,156.4 M177.9,156.4c7.5,5,4.3,16.6-4.6,16.6c-8.1,0-12.2-8.4-7.2-14.8
	C168.7,154.9,174.4,154,177.9,156.4 M236.7,155.7c0.1,0.2-0.2,0.6-0.7,0.7c-0.7,0.2-0.8,0.4-0.5,0.8c0.2,0.3,0.7,1.3,1.1,2.3
	c0.7,1.8,1,2.6,2.5,6c0.4,1,1,2.5,1.3,3.3c0.7,1.8,1.4,1.9,2.1,0.2c0.3-0.7,1-2.2,1.4-3.2c0.5-1,0.8-2,0.8-2.1
	c0-0.1,0.4-1.1,0.8-2.1c2.3-5.1,2.3-5.3,1.3-5.3c-0.3,0-0.6-0.2-0.5-0.5c0.1-0.3,0.9-0.5,2.3-0.5c1.4,0,2.2,0.2,2.3,0.5
	c0.1,0.3-0.3,0.5-1.1,0.5c-0.7,0-1.2,0.2-1.2,0.4c0,0.2-0.5,1.6-1.2,3c-0.7,1.4-1.2,2.7-1.2,2.8c0,0.2-0.7,1.8-2,4.8
	c-0.2,0.4-0.8,1.9-1.3,3.2c-1.1,2.8-1.6,3.1-2.4,1.3c-0.3-0.7-1-2.2-1.4-3.2c-0.5-1-0.8-2-0.8-2.1c0-0.1-0.4-1.1-0.8-2.1
	c-0.5-1-1.1-2.4-1.4-3.1c-2-4.6-2.2-5-3.2-5c-1,0-1.3-0.4-0.7-1C232.8,154.8,236.6,155.2,236.7,155.7 M266.9,155.8
	c0.5,1.1,2,4.4,2,4.6c0,0.1,0.4,1.1,0.8,2.1c0.9,2.1,1.7,3.9,2.6,6.1c1.1,2.6,1.7,3.4,2.5,3.5c1.8,0.3,0.7,0.9-1.6,0.9
	c-2.3,0-3.1-0.4-1.8-0.9c1-0.4,0.5-2.4-1.4-5.9c-0.6-1.2-7.2-0.8-7.9,0.4c-2.1,3.7-2.5,5.6-1.2,5.6c0.3,0,0.6,0.2,0.6,0.4
	c0,0.2-1.1,0.4-2.4,0.4c-2.6,0-3.1-0.4-1.3-1c0.8-0.3,1.3-0.9,1.7-2c0.3-0.9,1.1-2.7,1.7-4.1c0.6-1.4,1.1-2.6,1.1-2.7s0.4-1,0.8-2
	c0.4-1,1.2-2.6,1.6-3.6c0.4-1,0.8-2,0.8-2.2C265.6,154.8,266.5,155.1,266.9,155.8 M285.9,155.7c0.1,0.3-0.3,0.5-0.8,0.6
	c-0.9,0.1-0.9,0.1-1,7.5c-0.1,9-0.4,8.5,4.7,8.4l3.8-0.1l0.1-1.3c0.2-2.1,1.3-1.7,1.3,0.5v1.8h-6.2c-6.1,0-7.2-0.2-5.4-1.2
	c0.8-0.4,0.8-0.8,0.8-7.9c0-7.1,0-7.4-0.8-7.6c-0.8-0.2-1-0.6-0.5-1.1C282.4,154.8,285.8,155.2,285.9,155.7 M303.8,155.3
	c0.8,0.3,0.4,1-0.6,1c-0.8,0-0.8,0.3-0.7,7.9l0.1,7.9h4.2h4.2l0.1-1.5c0.2-2.1,0.8-1.9,0.9,0.3c0.2,2.4,0.7,2.2-6.3,2.2
	c-5.7,0-7.4-0.3-5.3-1c1.3-0.4,1.2-15.6-0.1-16c-0.8-0.2-0.8-0.3-0.3-0.6C300.7,155,302.8,154.9,303.8,155.3 M330,155.6
	c0.6,0.7,0.4,2.7-0.3,2.9c-0.3,0.1-0.5-0.3-0.6-1l-0.1-1.1l-4.1-0.1l-4.1-0.1v3.6v3.6h4c5.6,0,5.4,0.9-0.2,1.1l-3.9,0.1l0.1,3.7
	l0.1,3.7l3.7,0.1c4.2,0.1,4.9-0.2,4.9-2c0-0.6,0.2-1.2,0.4-1.2s0.4,0.9,0.4,2v2H324c-6.2,0-7.3-0.2-5.5-1c0.9-0.4,0.9-0.6,1-7.9
	l0.1-7.5l-1.1-0.4c-2-0.8-0.2-1.2,5.5-1.2C328.4,155,329.6,155.1,330,155.6 M52,159.8v3.6l2.5,0c3.3,0,4.7-1.2,4.7-3.9
	c0-2.1-1.7-3.3-4.7-3.3H52V159.8 M148.2,156.8c-0.1,0.3-0.2,1.9-0.1,3.5l0.1,3l1.8,0.1c4.7,0.3,7-3.1,4-6
	C152.6,156.1,148.6,155.6,148.2,156.8 M169,157.2c-5.5,3.3-5,11.4,0.9,14.1c6.6,3.1,13.7-4.2,10.5-10.8
	C178.4,156.5,172.9,154.9,169,157.2 M75.2,158c0,0.3-0.2,0.9-0.4,1.3c-0.6,1.1-2,4.5-2,4.7c0,0.1,1.3,0.2,2.8,0.2
	c3.4,0,3.4-0.1,0.9-5.5C75.9,157.4,75.2,157,75.2,158 M265.6,158c0,0.3-0.2,0.9-0.4,1.3c-0.6,1.1-2,4.5-2,4.7c0,0.1,1.3,0.2,2.8,0.2
	c3.4,0,3.4-0.1,0.9-5.5C266.3,157.4,265.6,157,265.6,158 M33.5,159.2c-2.4,5.4-2.4,5,1,5c3.1,0,3.1,0,1.8-3c-0.3-0.7-0.7-1.7-1-2.3
	C34.7,157.4,34.2,157.5,33.5,159.2 M203.8,165c-4.3,2.6-0.7,9,3.9,6.6c1.5-0.8,1.5-1.2-0.2-4.1C205.6,164.3,205.3,164.1,203.8,165
	 M52.1,168.3c0.1,4.3,0.3,4.4,4.2,3.6c5.9-1.3,4.7-6.7-1.6-7.1l-2.7-0.2L52.1,168.3 M333.2,193v1.6H167.8H2.4V193v-1.6h165.4h165.4
	V193"/>
</svg>
